<?xml version="1.0" encoding="UTF-8"?>
<svg version="1.1" xmlns="http://www.w3.org/2000/svg" width="72" height="75">
<path d="M0 0 C23.76 0 47.52 0 72 0 C72 24.75 72 49.5 72 75 C48.24 75 24.48 75 0 75 C0 50.25 0 25.5 0 0 Z " fill="#E5E8EF" transform="translate(0,0)"/>
<path d="M0 0 C23.76 0 47.52 0 72 0 C72 1.98 72 3.96 72 6 C71.01 5.67 70.02 5.34 69 5 C66.94594683 4.89586727 64.88868416 4.85139153 62.83203125 4.83886719 C61.56061279 4.82925964 60.28919434 4.8196521 58.97924805 4.80975342 C57.59033385 4.80490655 56.20141758 4.80062745 54.8125 4.796875 C53.38907876 4.79112226 51.96565753 4.78536454 50.54223633 4.77960205 C47.5597294 4.76910334 44.57724936 4.76325275 41.59472656 4.75976562 C37.7712121 4.75427178 33.94805212 4.73022048 30.12464905 4.70179367 C27.18557692 4.68318422 24.24659067 4.67796269 21.3074646 4.67642975 C19.89763442 4.67340073 18.48780584 4.66536373 17.07803345 4.65224457 C15.10808335 4.63521538 13.13798696 4.63890459 11.16796875 4.64355469 C10.04672607 4.63990906 8.9254834 4.63626343 7.77026367 4.63250732 C5.0369847 4.80525749 5.0369847 4.80525749 3.13677979 6.13677979 C1.47846502 8.85481334 1.6332437 10.99674107 1.64355469 14.16796875 C1.64055359 15.43938721 1.63755249 16.71080566 1.63446045 18.02075195 C1.64646693 19.40967207 1.65894996 20.79858813 1.671875 22.1875 C1.67493322 23.6109192 1.67680886 25.03434138 1.67755127 26.45776367 C1.6821534 29.44038352 1.69657496 32.42273323 1.71875 35.40527344 C1.74703228 39.22867196 1.75796172 43.05185776 1.7624321 46.87535095 C1.76658907 49.81443408 1.77640887 52.75347422 1.78830719 55.6925354 C1.79400491 57.10234229 1.79876526 58.51215329 1.80257416 59.92196655 C1.809449 61.89201327 1.82398075 63.86202878 1.83886719 65.83203125 C1.84569519 66.95327393 1.85252319 68.0745166 1.85955811 69.22973633 C1.88049176 72.08779064 1.88049176 72.08779064 3 75 C2.01 75 1.02 75 0 75 C0 50.25 0 25.5 0 0 Z " fill="#FEFEFE" transform="translate(0,0)"/>
<path d="M0 0 C1.32 0.33 2.64 0.66 4 1 C5.98 8.59 7.96 16.18 10 24 C10.33 24 10.66 24 11 24 C11.19335938 23.36191406 11.38671875 22.72382812 11.5859375 22.06640625 C11.97652344 20.82697266 11.97652344 20.82697266 12.375 19.5625 C12.75785156 18.32693359 12.75785156 18.32693359 13.1484375 17.06640625 C14 15 14 15 16 14 C17.99960012 13.960008 20.00047242 13.95653201 22 14 C22 15.32 22 16.64 22 18 C20.02 18.33 18.04 18.66 16 19 C14.68 23.29 13.36 27.58 12 32 C11.01 32 10.02 32 9 32 C6.23049233 24.10690315 4.0998919 16.09044645 2 8 C0.50002556 10.94952958 -0.80023567 13.91489173 -2 17 C-4.64 17 -7.28 17 -10 17 C-10 16.34 -10 15.68 -10 15 C-8.35 14.67 -6.7 14.34 -5 14 C-4.72285156 13.07316406 -4.44570313 12.14632812 -4.16015625 11.19140625 C-3.79792969 9.99386719 -3.43570312 8.79632813 -3.0625 7.5625 C-2.70285156 6.36753906 -2.34320312 5.17257813 -1.97265625 3.94140625 C-1 1 -1 1 0 0 Z " fill="#6AA0F7" transform="translate(31,24)"/>
<path d="M0 0 C0 1.32 0 2.64 0 4 C-4.455 4.495 -4.455 4.495 -9 5 C-8.67 3.68 -8.34 2.36 -8 1 C-5.29120665 -0.35439668 -2.99066732 -0.06501451 0 0 Z " fill="#7EACF6" transform="translate(53,38)"/>
</svg>
